M48
; DRILL file {KiCad (6.0.2)} date Thu Apr  7 21:27:18 2022
; FORMAT={-:-/ absolute / metric / decimal}
; #@! TF.CreationDate,2022-04-07T21:27:18-05:00
; #@! TF.GenerationSoftware,Kicad,Pcbnew,(6.0.2)
; #@! TF.FileFunction,NonPlated,1,2,NPTH
FMAT,2
METRIC
; #@! TA.AperFunction,NonPlated,NPTH,ComponentDrill
T1C1.500
; #@! TA.AperFunction,NonPlated,NPTH,ComponentDrill
T2C1.702
; #@! TA.AperFunction,NonPlated,NPTH,ComponentDrill
T3C3.429
%
G90
G05
T1
X243.9Y-106.437
X243.9Y-113.437
T2
X149.684Y-162.637
X149.981Y-145.64
X150.278Y-128.642
X160.683Y-162.829
X160.979Y-145.832
X161.276Y-128.834
X169.389Y-151.231
X171.166Y-134.324
X172.943Y-117.418
X180.329Y-152.381
X182.106Y-135.474
X183.883Y-118.567
X189.42Y-147.222
X192.664Y-130.534
X195.908Y-113.847
X200.218Y-149.321
X203.462Y-132.633
X204.774Y-189.211
X204.927Y-161.782
X206.706Y-115.945
X208.171Y-145.094
X211.415Y-128.406
X215.725Y-163.88
X215.772Y-189.403
X218.969Y-147.193
X222.056Y-167.997
X222.213Y-130.505
X225.3Y-151.31
X227.003Y-191.409
X228.543Y-134.622
X232.854Y-170.096
X236.098Y-153.409
X237.577Y-194.441
X239.341Y-136.721
T3
X155.184Y-162.733
X155.48Y-145.736
X155.777Y-128.738
X174.859Y-151.806
X176.636Y-134.899
X178.413Y-117.992
X194.819Y-148.271
X198.063Y-131.584
X201.307Y-114.896
X210.273Y-189.307
X210.326Y-162.831
X213.57Y-146.143
X216.814Y-129.456
X227.455Y-169.047
X230.699Y-152.359
X232.29Y-192.925
X233.942Y-135.671
T0
M30
