M48
; DRILL file {KiCad (6.0.2)} date Thu Apr  7 21:27:18 2022
; FORMAT={-:-/ absolute / metric / decimal}
; #@! TF.CreationDate,2022-04-07T21:27:18-05:00
; #@! TF.GenerationSoftware,Kicad,Pcbnew,(6.0.2)
; #@! TF.FileFunction,Plated,1,2,PTH
FMAT,2
METRIC
; #@! TA.AperFunction,Plated,PTH,ComponentDrill
T1C0.400
; #@! TA.AperFunction,Plated,PTH,ComponentDrill
T2C0.900
; #@! TA.AperFunction,Plated,PTH,ComponentDrill
T3C1.092
; #@! TA.AperFunction,Plated,PTH,ComponentDrill
T4C1.270
; #@! TA.AperFunction,Plated,PTH,ComponentDrill
T5C1.300
; #@! TA.AperFunction,Plated,PTH,ComponentDrill
T6C2.200
%
G90
G05
T1
X151.05Y-110.837
X151.05Y-198.087
X151.534Y-109.67
X151.534Y-112.003
X151.534Y-196.92
X151.534Y-199.253
X152.7Y-109.187
X152.7Y-112.487
X152.7Y-196.437
X152.7Y-199.737
X153.867Y-109.67
X153.867Y-112.003
X153.867Y-196.92
X153.867Y-199.253
X154.35Y-110.837
X154.35Y-198.087
X189.956Y-164.644
X190.208Y-165.882
X190.653Y-163.591
X191.261Y-166.579
X191.89Y-163.339
X192.498Y-166.327
X192.944Y-164.036
X193.195Y-165.274
X218.819Y-110.49
X219.071Y-111.727
X219.516Y-109.437
X220.124Y-112.424
X220.754Y-109.185
X221.362Y-112.173
X221.807Y-109.882
X222.059Y-111.12
X258.55Y-145.837
X258.55Y-198.087
X259.034Y-144.67
X259.034Y-147.003
X259.034Y-196.92
X259.034Y-199.253
X260.2Y-144.187
X260.2Y-147.487
X260.2Y-196.437
X260.2Y-199.737
X261.367Y-144.67
X261.367Y-147.003
X261.367Y-196.92
X261.367Y-199.253
X261.85Y-145.837
X261.85Y-198.087
T3
X249.58Y-106.867
X249.58Y-109.407
X249.58Y-111.947
X249.58Y-114.487
X249.58Y-117.027
X249.58Y-119.567
X249.58Y-122.107
X249.58Y-124.647
X249.58Y-127.187
X249.58Y-129.727
X249.58Y-132.267
X249.58Y-134.807
X264.82Y-106.867
X264.82Y-109.407
X264.82Y-111.947
X264.82Y-114.487
X264.82Y-117.027
X264.82Y-119.567
X264.82Y-122.107
X264.82Y-124.647
X264.82Y-127.187
X264.82Y-129.727
X264.82Y-132.267
X264.82Y-134.807
T4
X150.251Y-158.846
X150.547Y-141.849
X150.844Y-124.852
X155.287Y-156.834
X155.583Y-139.837
X155.88Y-122.839
X160.249Y-159.021
X160.546Y-142.024
X160.842Y-125.026
X170.283Y-147.504
X172.06Y-130.597
X173.837Y-113.691
X175.476Y-145.939
X177.253Y-129.032
X179.03Y-112.125
X180.229Y-148.55
X182.006Y-131.643
X183.783Y-114.736
X190.636Y-143.587
X193.88Y-126.899
X195.945Y-142.48
X197.124Y-110.212
X199.189Y-125.792
X200.453Y-145.495
X202.433Y-109.104
X203.696Y-128.807
X205.34Y-185.421
X206.143Y-158.147
X206.94Y-112.12
X209.387Y-141.459
X210.376Y-183.408
X211.452Y-157.039
X212.631Y-124.771
X214.696Y-140.352
X215.339Y-185.595
X215.959Y-160.055
X217.939Y-123.664
X219.203Y-143.367
X222.447Y-126.679
X223.272Y-164.363
X226.516Y-147.675
X228.531Y-187.894
X228.581Y-163.255
X229.759Y-130.987
X231.824Y-146.568
X233.088Y-166.271
X233.917Y-187.254
X235.068Y-129.88
X236.332Y-149.583
X238.144Y-190.651
X239.576Y-132.895
T5
X237.95Y-106.587
X237.95Y-113.087
T6
X152.7Y-110.837
X152.7Y-198.087
X191.576Y-164.959
X220.439Y-110.805
X260.2Y-145.837
X260.2Y-198.087
T2
X241.6Y-107.737G85X241.6Y-108.337
G05
X241.6Y-110.737G85X241.6Y-111.337
G05
X241.6Y-114.737G85X241.6Y-115.337
G05
X241.6Y-115.837G85X241.6Y-116.437
G05
X246.2Y-107.737G85X246.2Y-108.337
G05
X246.2Y-110.737G85X246.2Y-111.337
G05
X246.2Y-114.737G85X246.2Y-115.337
G05
X246.2Y-115.837G85X246.2Y-116.437
G05
T0
M30
